<svg id="Layer_1" data-name="Layer 1" xmlns="http://www.w3.org/2000/svg" viewBox="0 0 520 520"><defs><style>.cls-1{fill:#377fd1;}</style></defs><title>Artboard 7</title><path class="cls-1" d="M502.9,241.12l-113.44-122a24.66,24.66,0,0,0-18.06-7.87H130.84a30.4,30.4,0,0,0-30.39,30.39v.62a30.4,30.4,0,0,0,30.39,30.39H217.1a30.7,30.7,0,1,1,0,61.39H155.4A30.4,30.4,0,0,0,125,264.43v.62a30.4,30.4,0,0,0,30.39,30.39h61.7a30.7,30.7,0,1,1,0,61.39H204.74a30.62,30.62,0,0,0-30.61,30.62v.16a30.62,30.62,0,0,0,30.61,30.62H370.67a24.64,24.64,0,0,0,18.86-8.78L503.71,273.78A24.65,24.65,0,0,0,502.9,241.12Z"/><path class="cls-1" d="M100.45,266h0a30.69,30.69,0,0,0-30.69-30.7H45.12A30.62,30.62,0,0,0,14.5,265.89v.16a30.62,30.62,0,0,0,30.62,30.62H69.76A30.7,30.7,0,0,0,100.45,266Z"/><path class="cls-1" d="M118.87,356.83h-.08a30.62,30.62,0,0,0-30.62,30.62v.16a30.62,30.62,0,0,0,30.62,30.62h.08a30.7,30.7,0,0,0,30.7-30.7h0A30.7,30.7,0,0,0,118.87,356.83Z"/></svg>