<svg width="200" height="200" fill="none" xmlns="http://www.w3.org/2000/svg"><path d="M155 39.7H61.3c-1.2 0-2.2 1-2.2 2.2v122c0 1.3 1 2.3 2.2 2.3H155c1.2 0 2.1-1 2.1-2.2V42c0-1.3-1-2.3-2.1-2.3Z" fill="#F4F4F4"/><path d="M145.5 158.6H72.3c-.8 0-1.6-.4-2.2-1-.6.6-1.4 1-2.3 1h-18a3.7 3.7 0 0 1-3.5-3.6V36a3.5 3.5 0 0 1 3.5-3.4h18c.8 0 1.6.3 2.2.9.6-.6 1.4-.9 2.3-.9h73.2a3.4 3.4 0 0 1 3.4 3.4v119a3.6 3.6 0 0 1-3.4 3.6Zm-74.3-3.4a1.1 1.1 0 0 0 1.1 1.2h73.2a1.4 1.4 0 0 0 1.2-1.4V36a1.2 1.2 0 0 0-1.2-1.1H72.3a1.1 1.1 0 0 0-1.1 1.1 1.1 1.1 0 0 1-2.2 0 1.1 1.1 0 0 0-1.2-1.1h-18a1.3 1.3 0 0 0-1.3 1.1v119a1.5 1.5 0 0 0 1.3 1.3h18a1.1 1.1 0 0 0 1.2-1 1.1 1.1 0 1 1 2.2 0Z" fill="#D2D2D2" stroke="#D2D2D2" stroke-width="2" stroke-miterlimit="10"/><path d="M55.2 49.5H43a1.1 1.1 0 1 1 0-2.3h12.3a1.1 1.1 0 0 1 0 2.3ZM55.2 68.5H43a1.1 1.1 0 0 1 0-2.2h12.3a1.1 1.1 0 1 1 0 2.2ZM55.2 87.6H43a1.1 1.1 0 0 1 0-2.2h12.3a1.1 1.1 0 0 1 0 2.2ZM55.2 107.8H43a1.1 1.1 0 0 1 0-2.2h12.3a1.1 1.1 0 0 1 0 2.2ZM55.2 126.9H43a1.1 1.1 0 0 1-1.2-1.1 1.1 1.1 0 0 1 1.2-1.1h12.3a1.1 1.1 0 0 1 0 2.2ZM55.2 146H43a1.1 1.1 0 0 1 0-2.2h12.3a1.1 1.1 0 0 1 0 2.2Z" fill="#D2D2D2" stroke="#D2D2D2" stroke-width="2" stroke-miterlimit="10"/><path d="M136 53H82c-2.2 0-4 2-4 4.3v21.4c0 2.4 1.8 4.3 4 4.3h54c2.2 0 4-2 4-4.3V57.3c0-2.4-1.8-4.3-4-4.3Z" fill="#fff"/><path d="M94 62.1v11h-3V62h3ZM101.4 73V62.2h4.7c.8 0 1.5.2 2.1.5.6.3 1 .8 1.4 1.4.4.6.5 1.2.5 2s-.2 1.5-.5 2c-.3.6-.8 1-1.5 1.4-.6.3-1.3.4-2.1.4h-2.8v-2.3h2.2c.3 0 .6 0 .9-.2.2 0 .4-.3.5-.5.2-.2.2-.5.2-.8 0-.3 0-.6-.2-.8l-.5-.5a2 2 0 0 0-1-.2h-1v8.6h-3ZM127.8 67.6c0 1.2-.3 2.2-.7 3-.5 1-1.1 1.5-2 2-.7.4-1.6.6-2.6.6s-2-.2-2.7-.6c-.8-.5-1.5-1.1-2-2-.4-.8-.6-1.8-.6-3s.2-2.2.7-3c.4-.9 1-1.5 1.9-2 .8-.4 1.7-.6 2.7-.6 1 0 1.9.2 2.7.6.8.5 1.4 1.1 1.9 2 .4.8.7 1.8.7 3Zm-3 0c0-.6-.2-1.2-.3-1.6a2 2 0 0 0-.8-1c-.3-.3-.7-.4-1.2-.4s-1 .1-1.3.3c-.3.3-.6.6-.7 1-.2.5-.3 1-.3 1.7s.1 1.2.3 1.7c.1.4.4.7.7 1 .4.2.8.3 1.3.3s.9 0 1.2-.3l.8-1 .2-1.7Z" fill="#D2D2D2"/><path d="M134.8 83H83.2a5.2 5.2 0 0 1-5.2-5.2V58.2a5.2 5.2 0 0 1 5.2-5.2h51.6a5.2 5.2 0 0 1 4.8 3.2c.3.7.4 1.3.4 2v19.6a5.2 5.2 0 0 1-5.2 5.2ZM83.2 55.6a2.6 2.6 0 0 0-2.6 2.6v19.6a2.6 2.6 0 0 0 2.6 2.6h51.6a2.6 2.6 0 0 0 2.6-2.6V58.2a2.6 2.6 0 0 0-2.6-2.6H83.2ZM154.9 167.3H59.2a3.4 3.4 0 0 1-3.4-3.4v-6.4a1.1 1.1 0 0 1 1.1-1.1 1.1 1.1 0 0 1 1 .7l.2.4v6.4a1.1 1.1 0 0 0 1 1.1H155a1.1 1.1 0 0 0 1.1-1.1V98.2a1.1 1.1 0 0 1 2.3 0v65.7a3.4 3.4 0 0 1-3.4 3.4ZM157.1 62.2a1.1 1.1 0 0 1-1.1-1.1V45a1.1 1.1 0 0 0-1.1-1.1h-7a1.1 1.1 0 0 1 0-2.3h7a3.4 3.4 0 0 1 3.4 3.4v16a1.1 1.1 0 0 1-1.2 1.2ZM70 112.4a1.1 1.1 0 0 1-1-1.1V36a1.1 1.1 0 0 1 2.2 0v75.2a1.1 1.1 0 0 1-1.1 1.2Z" fill="#D2D2D2" stroke="#D2D2D2" stroke-width="2" stroke-miterlimit="10"/><path d="M70 156.7a1.1 1.1 0 0 1-1-1v-17a1.1 1.1 0 0 1 2.2 0v17a1.1 1.1 0 0 1-1.1 1Z" fill="#D2D2D2" stroke="#D2D2D2" stroke-width="2" stroke-miterlimit="10"/></svg>