<svg id="Layer_1" data-name="Layer 1" xmlns="http://www.w3.org/2000/svg" viewBox="0 0 200 200"><defs><style>.cls-1{fill:#f4f4f4;}.cls-2{fill:#d2d2d2;stroke:#d2d2d2;stroke-miterlimit:10;stroke-width:2px;}</style></defs><title>Artboard 1</title><polygon class="cls-1" points="91.26 107.83 47.33 107.83 41.93 72.95 96.65 72.95 91.26 107.83"/><polygon class="cls-1" points="161.35 107.83 117.42 107.83 112.03 72.95 166.74 72.95 161.35 107.83"/><circle class="cls-1" cx="100.76" cy="104.43" r="7.92"/><path class="cls-2" d="M160.27,52.57a1.1,1.1,0,0,0-1.1-1.1H104.45a1.1,1.1,0,0,0-1.1,1.1v14a.87.87,0,0,0,0,.09s0,.05,0,.08l3.11,20.13H87l3.11-20.13s0-.05,0-.08,0-.06,0-.09v-14a1.1,1.1,0,0,0-1.1-1.1H53.71a1.1,1.1,0,0,0,0,2.2H88V65.46H35.46V53.67H38a1.1,1.1,0,1,0,0-2.2H34.36a1.1,1.1,0,0,0-1.1,1.1v14a.87.87,0,0,0,0,.09s0,.05,0,.08l5.39,34.88a1.1,1.1,0,0,0,1.09.93H41.5l5.22,33.75-2.65,10.88a1.1,1.1,0,0,0,1.07,1.36H78.31a1.1,1.1,0,0,0,1-1.56l-2.6-10.69L79.84,116h33.83l3.13,20.27-2.65,10.88a1.1,1.1,0,0,0,1.07,1.36h33.15a1.1,1.1,0,0,0,1.07-1.36l-2.65-10.89,1.76-11.37a1.1,1.1,0,0,0-2.17-.34l-1.79,11.57a.25.25,0,0,0,0,0,1.13,1.13,0,0,0,0,.44l2.37,9.72H116.63l2.16-8.88h14.87a1,1,0,0,0,.18,0h1.08a1.1,1.1,0,0,0,0-2.2H118.87l-3.13-20.27v0a1.1,1.1,0,0,0-.06-.37l-1.61-10.43-.24-1.57h36l-.26,1.71a1.1,1.1,0,1,0,2.17.34l.32-2h1.75a1.1,1.1,0,0,0,1.09-.93l5.39-34.88s0-.05,0-.08,0-.06,0-.09Zm-54.72,1.1h52.52V65.46H105.55Zm-69.91,14H87.79L84.68,87.78h0l-1.94,12.55h-42ZM79.7,102.53l-.11.73-1.78,11.48h0l-3.16,20.46H48.78l-5.05-32.68ZM46.54,146.33l2.16-8.88h26l2.16,8.88Zm33.64-32.52,1.74-11.28h1.75a1.1,1.1,0,0,0,1.09-.93l1.94-12.55h20.11l1.94,12.55a1.1,1.1,0,0,0,1.09.93h1.75l1.74,11.28Zm72.65-13.48h-42l-5.05-32.68h52.15Z"/><path class="cls-2" d="M96.76,93.77a7.66,7.66,0,1,0,7.66,7.66A7.67,7.67,0,0,0,96.76,93.77Zm0,13.46a5.79,5.79,0,1,1,5.79-5.79A5.8,5.8,0,0,1,96.76,107.23Z"/></svg>